<svg width="32" height="35" viewBox="0 0 32 35" fill="none" xmlns="http://www.w3.org/2000/svg">
<g filter="url(#filter0_d)">
<path d="M10.5 14C10.5 14.5523 10.9477 15 11.5 15C12.0523 15 12.5 14.5523 12.5 14H10.5ZM11.5 9.5H10.5H11.5ZM16 5V4V5ZM19.5 14C19.5 14.5523 19.9477 15 20.5 15C21.0523 15 21.5 14.5523 21.5 14H19.5ZM15.7493 22C15.7493 21.8619 15.8612 21.75 15.9993 21.75V23.75C16.9658 23.75 17.7493 22.9665 17.7493 22H15.7493ZM15.9993 21.75C16.1373 21.75 16.2493 21.8619 16.2493 22H14.2493C14.2493 22.9665 15.0328 23.75 15.9993 23.75V21.75ZM16.2493 22C16.2493 22.1381 16.1373 22.25 15.9993 22.25V20.25C15.0328 20.25 14.2493 21.0335 14.2493 22H16.2493ZM15.9993 22.25C15.8612 22.25 15.7493 22.1381 15.7493 22H17.7493C17.7493 21.0335 16.9658 20.25 15.9993 20.25V22.25ZM6 15H26V13H6V15ZM26 15H28C28 13.8954 27.1046 13 26 13V15ZM26 15V29H28V15H26ZM26 29V31C27.1046 31 28 30.1046 28 29H26ZM26 29H6V31H26V29ZM6 29H4C4 30.1046 4.89543 31 6 31V29ZM6 29V15H4V29H6ZM6 15V13C4.89543 13 4 13.8954 4 15H6ZM12.5 14V9.5H10.5V14H12.5ZM12.5 9.5C12.5 8.57174 12.8687 7.6815 13.5251 7.02513L12.1109 5.61091C11.0795 6.64236 10.5 8.04131 10.5 9.5H12.5ZM13.5251 7.02513C14.1815 6.36875 15.0717 6 16 6V4C14.5413 4 13.1424 4.57946 12.1109 5.61091L13.5251 7.02513ZM16 6C16.9283 6 17.8185 6.36875 18.4749 7.02513L19.8891 5.61091C18.8576 4.57946 17.4587 4 16 4V6ZM18.4749 7.02513C19.1313 7.6815 19.5 8.57174 19.5 9.5H21.5C21.5 8.04131 20.9205 6.64236 19.8891 5.61091L18.4749 7.02513ZM19.5 9.5V14H21.5V9.5H19.5Z" fill="#ECECEC"/>
</g>
<defs>
<filter id="filter0_d" x="0" y="0" width="32" height="35" filterUnits="userSpaceOnUse" color-interpolation-filters="sRGB">
<feFlood flood-opacity="0" result="BackgroundImageFix"/>
<feColorMatrix in="SourceAlpha" type="matrix" values="0 0 0 0 0 0 0 0 0 0 0 0 0 0 0 0 0 0 127 0"/>
<feOffset/>
<feGaussianBlur stdDeviation="2"/>
<feColorMatrix type="matrix" values="0 0 0 0 1 0 0 0 0 1 0 0 0 0 1 0 0 0 0.25 0"/>
<feBlend mode="normal" in2="BackgroundImageFix" result="effect1_dropShadow"/>
<feBlend mode="normal" in="SourceGraphic" in2="effect1_dropShadow" result="shape"/>
</filter>
</defs>
</svg>
