<svg width="36" height="34" viewBox="0 0 36 34" fill="none" xmlns="http://www.w3.org/2000/svg">
<g filter="url(#filter0_d)">
<path d="M18.1265 21C22.5447 21 26.1265 17.4183 26.1265 13C26.1265 8.58172 22.5447 5 18.1265 5C13.7082 5 10.1265 8.58172 10.1265 13C10.1265 17.4183 13.7082 21 18.1265 21ZM18.1265 21C15.6688 21 13.2544 21.6467 11.1259 22.8752C8.99727 24.1037 7.22945 25.8708 6 27.9988M18.1265 21C20.5841 21 22.9986 21.6468 25.1271 22.8754C27.2557 24.1039 29.0235 25.871 30.2529 27.9991" stroke="#EAEAEA" stroke-width="2" stroke-linecap="square"/>
</g>
<defs>
<filter id="filter0_d" x="0.633865" y="0" width="34.9851" height="33.3652" filterUnits="userSpaceOnUse" color-interpolation-filters="sRGB">
<feFlood flood-opacity="0" result="BackgroundImageFix"/>
<feColorMatrix in="SourceAlpha" type="matrix" values="0 0 0 0 0 0 0 0 0 0 0 0 0 0 0 0 0 0 127 0"/>
<feOffset/>
<feGaussianBlur stdDeviation="2"/>
<feColorMatrix type="matrix" values="0 0 0 0 1 0 0 0 0 1 0 0 0 0 1 0 0 0 0.25 0"/>
<feBlend mode="normal" in2="BackgroundImageFix" result="effect1_dropShadow"/>
<feBlend mode="normal" in="SourceGraphic" in2="effect1_dropShadow" result="shape"/>
</filter>
</defs>
</svg>
