<svg width="66" height="64" viewBox="0 0 66 64" fill="none" xmlns="http://www.w3.org/2000/svg">
<g filter="url(#filter0_d)">
<path d="M11.2289 49.0357C13.8089 43.8438 15.1474 38.1234 15.1389 32.3258C15.1362 29.5084 15.7683 26.7267 16.9882 24.1871C18.2081 21.6475 19.9845 19.4154 22.1853 17.6565M33.9296 32.3258C33.9444 41.8763 31.5215 51.2727 26.8902 59.6253M24.5343 32.3258C24.5343 29.834 25.5241 27.4442 27.2861 25.6823C29.0481 23.9203 31.4378 22.9304 33.9296 22.9304C36.4214 22.9304 38.8112 23.9203 40.5731 25.6823C42.3351 27.4442 43.325 29.834 43.325 32.3258C43.3387 42.0099 41.2053 51.5767 37.0785 60.3375M60.518 48.7675C61.5833 43.3517 62.1183 37.8451 62.1156 32.3256C62.1156 24.8502 59.146 17.681 53.86 12.3951C48.5741 7.10915 41.4049 4.13956 33.9295 4.13956C26.4541 4.13956 19.2849 7.10915 13.999 12.3951C8.71305 17.681 5.74345 24.8502 5.74345 32.3256C5.74696 35.5258 5.20456 38.7032 4.13959 41.721M23.5946 41.7209C22.5919 46.6599 20.7957 51.4038 18.276 55.7684M31.5808 13.6805C34.2255 13.3497 36.9104 13.5849 39.4574 14.3705C42.0044 15.156 44.3552 16.4741 46.3542 18.2372C48.3531 20.0002 49.9544 22.1681 51.052 24.597C52.1495 27.0259 52.7182 29.6604 52.7203 32.3258C52.721 35.4665 52.5268 38.6043 52.1388 41.721M50.3524 51.1163C49.9051 52.8541 49.3981 54.5668 48.8312 56.2544" stroke="#6100FF" stroke-width="3" stroke-linecap="round" stroke-linejoin="round"/>
</g>
<defs>
<filter id="filter0_d" x="0.63916" y="0.639557" width="64.9764" height="63.1983" filterUnits="userSpaceOnUse" color-interpolation-filters="sRGB">
<feFlood flood-opacity="0" result="BackgroundImageFix"/>
<feColorMatrix in="SourceAlpha" type="matrix" values="0 0 0 0 0 0 0 0 0 0 0 0 0 0 0 0 0 0 127 0"/>
<feOffset/>
<feGaussianBlur stdDeviation="1"/>
<feColorMatrix type="matrix" values="0 0 0 0 0.48366 0 0 0 0 0.166667 0 0 0 0 1 0 0 0 1 0"/>
<feBlend mode="normal" in2="BackgroundImageFix" result="effect1_dropShadow"/>
<feBlend mode="normal" in="SourceGraphic" in2="effect1_dropShadow" result="shape"/>
</filter>
</defs>
</svg>
